<svg width="60" height="62" viewBox="0 0 60 62" fill="none" xmlns="http://www.w3.org/2000/svg">
<path d="M14.6105 53.1415C15.2278 52.9452 15.8973 53.0362 16.4445 53.3908C20.475 56.0022 25.1344 57.4074 30 57.4074C44.1139 57.4074 55.5556 45.5844 55.5556 31C55.5556 16.4156 44.1139 4.59259 30 4.59259C15.8861 4.59259 4.44444 16.4156 4.44444 31C4.44444 36.1755 5.88563 41.1242 8.55432 45.368C8.90513 45.9259 9.00455 46.6136 8.82684 47.253C8.48737 48.4746 8.02027 50.1953 7.45822 52.2897C7.434 52.38 7.434 52.38 7.40978 52.4703C7.13076 53.5106 6.83989 54.5998 6.54548 55.7058L14.6105 53.1415ZM3.98686 61.3244C2.31278 61.8567 0.728579 60.2716 1.1894 58.5255C1.21955 58.4113 1.21955 58.4113 1.35493 57.8992C1.48659 57.4015 1.63349 56.8469 1.79195 56.2497C2.24473 54.5433 2.69948 52.8369 3.12678 51.2437C3.15109 51.1531 3.15109 51.1531 3.1754 51.0625C3.6037 49.4665 3.97741 48.0853 4.28302 46.9712C1.49818 42.1935 0 36.709 0 31C0 13.8792 13.4315 0 30 0C46.5685 0 60 13.8792 60 31C60 48.1208 46.5685 62 30 62C24.6451 62 19.493 60.5459 14.9677 57.833L3.98686 61.3244ZM34.9101 36.6479C35.2055 36.3426 35.5263 35.9743 35.8623 35.5577C36.2819 35.0374 36.7009 34.4727 37.0961 33.9073C37.3325 33.5689 37.5058 33.3096 37.5954 33.1707C37.6766 33.0449 37.7696 32.9276 37.8731 32.8207C38.0641 32.6233 38.3155 32.4285 38.6358 32.263C39.6318 31.7484 40.862 31.7484 42.1049 32.3906C42.5174 32.6037 47.3007 35.8173 49.4125 37.0297C50.2343 37.5014 50.6799 38.4564 50.5253 39.4145C50.0235 42.5259 49.1518 44.8832 47.1964 46.9038C44.4889 49.7015 40.3458 50.7987 34.6704 49.919C24.1651 48.2907 15.1293 38.7776 11.2592 28.3799C9.57584 23.8572 10.4004 19.4078 12.7325 15.3914C13.5968 13.9028 14.469 12.8013 15.0953 12.1541C15.4055 11.8335 15.8007 11.615 16.2309 11.5261C16.4226 11.4864 16.7241 11.4315 17.0931 11.377C17.4807 11.3198 17.8638 11.2758 18.2335 11.2503C19.7457 11.1461 20.7022 11.256 21.5714 12.1541C22.6696 13.2889 26.1111 20.1278 26.1111 21.8148C26.1111 23.5872 25.3588 25.0909 23.4887 27.1694C24.0186 28.6418 25.8722 30.8859 28.5641 33.173C29.961 34.3599 31.4825 35.4771 32.8122 36.3124C33.4057 36.6851 33.9296 36.9811 34.3298 37.1734C34.5054 37.0467 34.6978 36.8673 34.9101 36.6479ZM16.5436 17.7542C14.8519 20.6677 14.2864 23.7193 15.4074 26.7312C18.7569 35.7301 26.6407 44.0305 35.3296 45.3773C39.7037 46.0552 42.4312 45.3329 44.0537 43.6564C44.9209 42.7602 45.4624 41.65 45.8318 40.1899C43.9226 39.0075 41.5411 37.4307 40.5641 36.7881C40.1528 37.3694 39.7197 37.9484 39.2766 38.4978C38.8602 39.0141 38.4519 39.483 38.0528 39.8953C36.8137 41.1758 35.7516 41.9074 34.4444 41.9074C32.8106 41.9074 29.1124 39.5846 25.7414 36.7205C21.5301 33.1424 18.8889 29.6515 18.8889 26.4074C18.8889 25.7984 19.123 25.2143 19.5398 24.7837C21.2435 23.0231 21.6667 22.2944 21.6667 21.8148C21.5715 21.6901 21.4641 21.4096 21.3218 21.0719C21.0401 20.403 20.6401 19.5523 20.1812 18.6404C19.7568 17.797 19.3051 16.9478 18.9234 16.2729C18.8306 16.1089 18.7439 15.9585 18.6649 15.8248C18.6215 15.8269 18.5762 15.8295 18.5292 15.8327C18.3051 15.8482 18.0583 15.8755 17.8024 15.9117C17.3423 16.4925 16.9289 17.0905 16.5436 17.7542Z" fill="#80D25B"/>
</svg>
