<svg width="70" height="69" viewBox="0 0 70 69" fill="none" xmlns="http://www.w3.org/2000/svg">
<path d="M35 69C54.33 69 70 53.5538 70 34.5C70 15.4462 54.33 0 35 0C15.67 0 0 15.4462 0 34.5C0 53.5538 15.67 69 35 69Z" fill="#5B68C0"/>
<path d="M40.0542 32.7292C39.4519 30.6236 37.7713 28.9637 35.6373 28.3652M44.8362 32.9759C43.5634 28.5268 40.0122 25.0191 35.5028 23.7544M50.2555 33.4728C48.1751 26.2005 42.3706 20.4672 35 18.4" stroke="white" stroke-width="4.416" stroke-linecap="round" stroke-linejoin="round"/>
<path fill-rule="evenodd" clip-rule="evenodd" d="M27.9418 31.4073C28.8242 30.6513 28.9096 29.3467 28.1466 28.4815L23.0884 22.7458L19.9127 25.4669C18.1623 26.9667 18.2891 29.058 19.1556 31.4073C19.1556 31.4073 21.7855 36.0712 25.9933 40.2963C30.2012 44.5214 38.05 48.5278 38.05 48.5278C39.9979 49.7747 42.6057 49.2242 43.8688 47.307L46.1606 43.8284L39.6943 39.6892C38.719 39.0648 37.4203 39.3298 36.7835 40.2963L36.038 41.4278C32.8954 40.3948 28.7942 39.379 26.6504 32.5139L27.9418 31.4073Z" fill="white"/>
</svg>
